<svg xmlns="http://www.w3.org/2000/svg" xml:space="preserve" viewBox="0 0 1560 1660" width="1560" height="1660" font-family="-apple-system,BlinkMacSystemFont,'PingFang SC','Hiragino Sans GB',system-ui,sans-serif">
<style>
  .ink{fill:none;stroke:#14161A;stroke-width:1.6;stroke-linejoin:round;stroke-linecap:round}
  .join{fill:none;stroke:#14161A;stroke-width:1.6;stroke-linejoin:round;stroke-linecap:butt}
  .thin{fill:none;stroke:#C8C3BA;stroke-width:1.2}
  .hair{fill:none;stroke:#C8C3BA;stroke-width:.8}
  .rule-ink{fill:none;stroke:#14161A;stroke-width:1;stroke-linecap:round}
  .tdash{fill:none;stroke:#0F766E;stroke-width:1.6;stroke-dasharray:4 4}
  .soft{fill:#F3F1ED;stroke:#C8C3BA;stroke-width:1.2}
  .acc{fill:#E6F4F1;stroke:#0F766E;stroke-width:1.6}
  .warm{fill:#FEF6E7;stroke:#B45309;stroke-width:1.6}
  .panel{fill:#fff;stroke:#C8C3BA;stroke-width:1.2}
  .op{fill:#fff;stroke:#14161A;stroke-width:1.2}
  .h1{font-size:28px;font-weight:700;fill:#14161A;letter-spacing:-.4px}
  .ph{font-size:15px;font-weight:650;fill:#14161A;letter-spacing:-.2px}
  .sm{font-size:12px;fill:#4E5560}
  .xs{font-size:11px;fill:#868D98}
  .tiny{font-size:9px;fill:#868D98}
  .v{font-family:'Times New Roman',Times,Georgia,serif;font-style:italic;font-size:15.5px;fill:#14161A;font-variant-numeric:lining-nums;font-feature-settings:'lnum' 1}
  .vs{font-family:'Times New Roman',Times,Georgia,serif;font-style:italic;font-size:10.5px;fill:#14161A;font-variant-numeric:lining-nums;font-feature-settings:'lnum' 1}
  .vr{font-family:'Times New Roman',Times,Georgia,serif;font-style:normal;font-size:15.5px;fill:#14161A;font-variant-numeric:lining-nums;font-feature-settings:'lnum' 1}
  .vrs{font-family:'Times New Roman',Times,Georgia,serif;font-style:normal;font-size:10.5px;fill:#14161A;font-variant-numeric:lining-nums;font-feature-settings:'lnum' 1}
  .mi{font-family:'Times New Roman',Times,serif;font-style:italic}
  .mr{font-family:'Times New Roman',Times,serif;font-variant-numeric:lining-nums}
  .sb{font-size:8.5px}
  .b{font-weight:600}
  .shp{font-family:'SF Mono',ui-monospace,Menlo,Consolas,monospace;font-size:11px;fill:#4E5560}
  .shpT{fill:#0B5750}
  .shpA{fill:#8A4008}
  .bg{fill:#0F766E}
  .bgt{font-size:11.5px;font-weight:700;fill:#fff}
  .cInk{fill:#14161A}.cMut{fill:#4E5560}.cFaint{fill:#868D98}.cTeal{fill:#0F766E}
  .cTealD{fill:#0B5750}.cAmber{fill:#B45309}.cAmberD{fill:#8A4008}
</style>
<defs>
  <marker id="a" viewBox="0 0 10 10" refX="10" refY="5" markerWidth="6.5" markerHeight="6.5" orient="auto">
    <path d="M0 0 L10 5 L0 10 z" fill="#14161A"/></marker>
  <marker id="at" viewBox="0 0 10 10" refX="10" refY="5" markerWidth="6.5" markerHeight="6.5" orient="auto">
    <path d="M0 0 L10 5 L0 10 z" fill="#0F766E"/></marker>
</defs>

<rect width="1560" height="1660" fill="#FBFAF8"/>

<!-- ================= HEADER ================= -->
<text x="40" y="48" class="h1">注意力的形状变换</text>
<text x="40" y="76" class="sm"><tspan class="mi">n</tspan> = 序列长度，<tspan class="mi">d</tspan><tspan class="mi sb" baseline-shift="-20%">model</tspan> = 512，<tspan class="mi">h</tspan> = 8。方块的高统一代表行数 <tspan class="mi">n</tspan>，宽代表列数。<tspan class="mi">d</tspan><tspan class="mi sb" baseline-shift="-20%">model</tspan>、<tspan class="mi">d</tspan><tspan class="mi sb" baseline-shift="-20%">k</tspan>、<tspan class="mi">d</tspan><tspan class="mi sb" baseline-shift="-20%">v</tspan> 在图里故意取成三个不同的值 —— <tspan class="mi">d</tspan><tspan class="mi sb" baseline-shift="-20%">k</tspan> 只要求 <tspan class="mi">Q</tspan> 与 <tspan class="mi">K</tspan> 一致（要做点积），<tspan class="mi">d</tspan><tspan class="mi sb" baseline-shift="-20%">v</tspan> 完全自由，只要 <tspan class="mi">W</tspan><tspan class="mr sb" baseline-shift="40%">O</tspan> 的行数跟着它走。</text>

<rect x="1150" y="32" width="14" height="14" rx="2" class="soft"/>
<text x="1170" y="44" class="tiny">残差流</text>
<rect x="1226" y="32" width="14" height="14" rx="2" class="acc"/>
<text x="1246" y="44" class="tiny"><tspan class="mi">Q K V O</tspan></text>
<rect x="1312" y="32" width="14" height="14" rx="2" class="warm"/>
<text x="1332" y="44" class="tiny">分数 <tspan class="shp shpA" font-size="9.5">(n, n)</tspan></text>
<rect x="1424" y="32" width="14" height="14" rx="3" class="op"/>
<text x="1444" y="44" class="tiny">权重 / 算子</text>

<line x1="40" y1="94" x2="1520" y2="94" class="thin"/>

<!-- ================================================================ -->
<!-- ==================== ① 单头 ==================================== -->
<!-- ================================================================ -->
<rect x="40" y="112" width="1480" height="436" rx="12" class="panel"/>
<circle cx="64" cy="142" r="12" class="bg"/><text x="64" y="146" class="bgt" text-anchor="middle">1</text>
<text x="86" y="147" class="ph">单头注意力</text>
<text x="64" y="176" class="xs"><tspan class="mi">h</tspan> = 1，整层只有一个头。这里 <tspan class="mi">d</tspan><tspan class="mi sb" baseline-shift="-20%">model</tspan> = 512、<tspan class="mi">d</tspan><tspan class="mi sb" baseline-shift="-20%">k</tspan> = 384、<tspan class="mi">d</tspan><tspan class="mi sb" baseline-shift="-20%">v</tspan> = 256，三个值互不相同：<tspan class="mi">Q</tspan> 与 <tspan class="mi">K</tspan> 必须同宽才能做点积，<tspan class="mi">V</tspan> 的宽度不受任何约束，它定下 <tspan class="mi">O</tspan> 的宽度，也定下 <tspan class="mi">W</tspan><tspan class="mr sb" baseline-shift="40%">O</tspan> 的行数。</text>

<!-- X -->
<rect x="64" y="320" width="96" height="72" rx="4" class="soft"/>
<text x="112" y="312" class="v" text-anchor="middle">X</text>
<text x="112" y="408" class="shp" text-anchor="middle">(n, 512)</text>

<path d="M160 356 C 182 356 182 244 204 244 H 220" class="ink" marker-end="url(#a)"/>
<path d="M160 356 H 220" class="ink" marker-end="url(#a)"/>
<path d="M160 356 C 182 356 182 468 204 468 H 220" class="ink" marker-end="url(#a)"/>

<!-- 投影 -->
<rect x="220" y="222" width="96" height="44" rx="6" class="op"/>
<text x="268" y="242" class="v" font-size="14" text-anchor="middle">× W<tspan class="vrs" baseline-shift="45%" font-size="10">Q</tspan></text>
<text x="268" y="258" class="shp" font-size="9.5" text-anchor="middle">(512, 384)</text>

<rect x="220" y="334" width="96" height="44" rx="6" class="op"/>
<text x="268" y="354" class="v" font-size="14" text-anchor="middle">× W<tspan class="vrs" baseline-shift="45%" font-size="10">K</tspan></text>
<text x="268" y="370" class="shp" font-size="9.5" text-anchor="middle">(512, 384)</text>

<rect x="220" y="446" width="96" height="44" rx="6" class="op"/>
<text x="268" y="466" class="v" font-size="14" text-anchor="middle">× W<tspan class="vrs" baseline-shift="45%" font-size="10">V</tspan></text>
<text x="268" y="482" class="shp" font-size="9.5" text-anchor="middle">(512, 256)</text>

<path d="M316 244 H 356" class="ink" marker-end="url(#a)"/>
<path d="M316 356 H 356" class="ink" marker-end="url(#a)"/>
<path d="M316 468 H 356" class="ink" marker-end="url(#a)"/>

<!-- Q K V -->
<rect x="356" y="208" width="72" height="72" rx="4" class="acc"/>
<text x="392" y="200" class="v" text-anchor="middle">Q</text>
<text x="392" y="296" class="shp shpT" text-anchor="middle">(n, 384)</text>

<rect x="356" y="320" width="72" height="72" rx="4" class="acc"/>
<text x="392" y="312" class="v" text-anchor="middle">K</text>
<text x="392" y="408" class="shp shpT" text-anchor="middle">(n, 384)</text>

<rect x="356" y="432" width="48" height="72" rx="4" class="acc"/>
<text x="380" y="424" class="v" text-anchor="middle">V</text>
<text x="380" y="520" class="shp shpT" text-anchor="middle">(n, 256)</text>

<path d="M428 244 C 443 244 443 300 458 300" class="join"/>
<path d="M428 356 C 443 356 443 300 458 300" class="join"/>
<path d="M458 300 H 484" class="ink" marker-end="url(#a)"/>

<!-- 打分 -->
<rect x="484" y="273" width="148" height="54" rx="6" class="op"/>
<text x="520" y="298" class="v" font-size="15">QK<tspan class="vrs" baseline-shift="45%" font-size="11">T</tspan> /</text>
<path d="M560 298 l4 6 l5 -18 h27" class="rule-ink"/>
<text x="582" y="299" class="v" font-size="15" text-anchor="middle">d<tspan class="vs" baseline-shift="-20%">k</tspan></text>
<text x="558" y="316" class="shp" font-size="9" text-anchor="middle">(n, 384) · (384, n)</text>

<path d="M632 300 H 672" class="ink" marker-end="url(#a)"/>

<rect x="672" y="264" width="72" height="72" rx="4" class="warm"/>
<text x="708" y="256" class="v" text-anchor="middle">S</text>
<text x="708" y="352" class="shp shpA" text-anchor="middle">(n, n)</text>
<text x="708" y="368" class="tiny cAmber" text-anchor="middle">全链唯一的 n × n</text>

<path d="M744 300 H 784" class="ink" marker-end="url(#a)"/>

<rect x="784" y="278" width="88" height="44" rx="6" class="op"/>
<text x="828" y="298" class="vr" font-size="14" text-anchor="middle">softmax</text>
<text x="828" y="314" class="tiny" text-anchor="middle">形状不变</text>

<path d="M872 300 H 912" class="ink" marker-end="url(#a)"/>

<rect x="912" y="264" width="72" height="72" rx="4" class="warm"/>
<text x="948" y="256" class="v" text-anchor="middle">A</text>
<text x="948" y="352" class="shp shpA" text-anchor="middle">(n, n)</text>

<path d="M984 300 C 999 300 999 356 1014 356" class="join"/>
<path d="M404 468 H 948 C 988 468 978 356 1014 356" class="join"/>
<path d="M1014 356 H 1036" class="ink" marker-end="url(#a)"/>

<rect x="1036" y="334" width="96" height="44" rx="6" class="op"/>
<text x="1084" y="354" class="v" font-size="14" text-anchor="middle">× V</text>
<text x="1084" y="370" class="shp" font-size="9.5" text-anchor="middle">(n, 256)</text>

<path d="M1132 356 H 1172" class="ink" marker-end="url(#a)"/>

<rect x="1172" y="320" width="48" height="72" rx="4" class="acc"/>
<text x="1196" y="312" class="v" text-anchor="middle">O</text>
<text x="1196" y="408" class="shp shpT" text-anchor="middle">(n, 256)</text>

<path d="M1220 356 H 1260" class="ink" marker-end="url(#a)"/>

<rect x="1260" y="334" width="96" height="44" rx="6" class="op"/>
<text x="1308" y="354" class="v" font-size="14" text-anchor="middle">× W<tspan class="vrs" baseline-shift="45%" font-size="10">O</tspan></text>
<text x="1308" y="370" class="shp" font-size="9.5" text-anchor="middle">(256, 512)</text>

<path d="M1356 356 H 1396" class="ink" marker-end="url(#a)"/>

<rect x="1396" y="320" width="96" height="72" rx="4" class="soft"/>
<text x="1444" y="312" class="v" text-anchor="middle">Y</text>
<text x="1444" y="408" class="shp shpT" text-anchor="middle">(n, 512)</text>
<text x="1444" y="424" class="tiny cTeal" text-anchor="middle">与 <tspan class="mi">X</tspan> 同形</text>

<!-- ================================================================ -->
<!-- ==================== ② 多头 ==================================== -->
<!-- ================================================================ -->
<rect x="40" y="568" width="1480" height="304" rx="12" class="panel"/>
<circle cx="64" cy="598" r="12" class="bg"/><text x="64" y="602" class="bgt" text-anchor="middle">2</text>
<text x="86" y="603" class="ph">多头注意力</text>
<text x="64" y="632" class="xs"><tspan class="mi">h</tspan> = 8 个头并行，每头 <tspan class="mi">d</tspan><tspan class="mi sb" baseline-shift="-20%">k</tspan> = 96、<tspan class="mi">d</tspan><tspan class="mi sb" baseline-shift="-20%">v</tspan> = 56。拼出来多宽只由 <tspan class="mi">d</tspan><tspan class="mi sb" baseline-shift="-20%">v</tspan> 决定：8 × 56 = 448，比 <tspan class="mi">d</tspan><tspan class="mi sb" baseline-shift="-20%">model</tspan> 窄一截，最后靠 <tspan class="mi">W</tspan><tspan class="mr sb" baseline-shift="40%">O</tspan> 拉回 512；<tspan class="mi">d</tspan><tspan class="mi sb" baseline-shift="-20%">k</tspan> 不参与拼接，只在每个头内部起作用。</text>

<rect x="64" y="674" width="96" height="72" rx="4" class="soft"/>
<text x="112" y="666" class="v" text-anchor="middle">X</text>
<text x="112" y="762" class="shp" text-anchor="middle">(n, 512)</text>

<path d="M160 710 H 240" class="ink" marker-end="url(#a)"/>

<text x="420" y="652" class="tiny cTeal" text-anchor="middle">h = 8 个头并行，单个头内部展开见 ③</text>
<rect x="240" y="660" width="360" height="120" rx="8" class="tdash"/>
<rect x="260" y="674" width="10.5" height="72" rx="2" class="acc"/>
<rect x="304" y="674" width="10.5" height="72" rx="2" class="acc"/>
<rect x="348" y="674" width="10.5" height="72" rx="2" class="acc"/>
<rect x="392" y="674" width="10.5" height="72" rx="2" class="acc"/>
<rect x="436" y="674" width="10.5" height="72" rx="2" class="acc"/>
<rect x="480" y="674" width="10.5" height="72" rx="2" class="acc"/>
<rect x="524" y="674" width="10.5" height="72" rx="2" class="acc"/>
<rect x="568" y="674" width="10.5" height="72" rx="2" class="acc"/>
<text x="265.25" y="762" class="tiny cTealD" text-anchor="middle">1</text>
<text x="309.25" y="762" class="tiny cTealD" text-anchor="middle">2</text>
<text x="353.25" y="762" class="tiny cTealD" text-anchor="middle">3</text>
<text x="397.25" y="762" class="tiny cTealD" text-anchor="middle">4</text>
<text x="441.25" y="762" class="tiny cTealD" text-anchor="middle">5</text>
<text x="485.25" y="762" class="tiny cTealD" text-anchor="middle">6</text>
<text x="529.25" y="762" class="tiny cTealD" text-anchor="middle">7</text>
<text x="573.25" y="762" class="tiny cTealD" text-anchor="middle">8</text>
<text x="420" y="796" class="tiny" text-anchor="middle"><tspan class="v" font-size="11">head<tspan class="vs" baseline-shift="-20%" font-size="8">1</tspan> … head<tspan class="vs" baseline-shift="-20%" font-size="8">8</tspan></tspan>，每块 <tspan class="shp shpT">(n, 56)</tspan></text>

<path d="M600 710 H 660" class="ink" marker-end="url(#a)"/>

<rect x="660" y="674" width="84" height="72" rx="4" class="acc"/>
<path d="M670.5 674 v72 M681 674 v72 M691.5 674 v72 M702 674 v72 M712.5 674 v72 M723 674 v72 M733.5 674 v72" class="hair"/>
<text x="702" y="666" class="vr" font-size="14" text-anchor="middle">Concat</text>
<text x="702" y="762" class="shp shpT" text-anchor="middle">(n, 8 × 56) = (n, 448)</text>

<path d="M744 710 H 816" class="ink" marker-end="url(#a)"/>

<rect x="816" y="688" width="96" height="44" rx="6" class="op"/>
<text x="864" y="708" class="v" font-size="14" text-anchor="middle">× W<tspan class="vrs" baseline-shift="45%" font-size="10">O</tspan></text>
<text x="864" y="724" class="shp" font-size="9.5" text-anchor="middle">(448, 512)</text>

<path d="M912 710 H 972" class="ink" marker-end="url(#a)"/>

<rect x="972" y="674" width="96" height="72" rx="4" class="soft"/>
<text x="1020" y="666" class="v" text-anchor="middle">Y</text>
<text x="1020" y="762" class="shp shpT" text-anchor="middle">(n, 512)</text>
<text x="1020" y="778" class="tiny cTeal" text-anchor="middle">与 <tspan class="mi">X</tspan> 同形</text>

<line x1="1120" y1="660" x2="1120" y2="790" class="thin"/>
<text x="1140" y="682" class="xs cInk b"><tspan class="mi">W</tspan><tspan class="mr sb" baseline-shift="40%">O</tspan> 的行数 = <tspan class="mi">h</tspan> × <tspan class="mi">d</tspan><tspan class="mi sb" baseline-shift="-20%">v</tspan></text>
<text x="1140" y="704" class="tiny">单头 <tspan class="mi">d</tspan><tspan class="mi sb" baseline-shift="-20%">v</tspan> = 256 → <tspan class="shp" font-size="9.5">(256, 512)</tspan>；</text>
<text x="1140" y="720" class="tiny">八头 8 × 56 = 448 → <tspan class="shp" font-size="9.5">(448, 512)</tspan>。</text>
<text x="1140" y="744" class="tiny">论文里习惯让 <tspan class="mi">h</tspan> × <tspan class="mi">d</tspan><tspan class="mi sb" baseline-shift="-20%">v</tspan> 正好等于 <tspan class="mi">d</tspan><tspan class="mi sb" baseline-shift="-20%">model</tspan>，</text>
<text x="1140" y="760" class="tiny">拼完就等宽。图里故意错开 —— 好看清</text>
<text x="1140" y="776" class="tiny">「回到 512」靠的是 <tspan class="mi">W</tspan><tspan class="mr sb" baseline-shift="40%">O</tspan>，不是拼接本身。</text>

<rect x="64" y="812" width="1432" height="44" rx="8" class="soft"/>
<text x="84" y="839" class="tiny b cInk">实现时的形状：不真建 8 套小矩阵，一次算完再切</text>
<text x="336" y="839" class="shp">(n, 512)<tspan class="tiny">&#160;→&#160;× <tspan class="mi">W</tspan><tspan class="mr sb" baseline-shift="40%">Q</tspan> (512, 768)&#160;→&#160;</tspan>(n, 768)<tspan class="tiny">&#160;→&#160;reshape&#160;→&#160;</tspan>(n, 8, 96)<tspan class="tiny">&#160;→&#160;transpose&#160;→&#160;</tspan>(8, n, 96)<tspan class="tiny">&#160;→&#160;打分&#160;→&#160;</tspan>(8, n, n)<tspan class="tiny">　　（<tspan class="mi">V</tspan> 那一路同理：<tspan class="mi">W</tspan><tspan class="mr sb" baseline-shift="40%">V</tspan> 是 (512, 448)，切成 (n, 8, 56)）</tspan></text>

<!-- ================================================================ -->
<!-- ==================== ③ 其中一个头 ============================== -->
<!-- ================================================================ -->
<rect x="40" y="892" width="1480" height="436" rx="12" class="panel"/>
<circle cx="64" cy="922" r="12" class="bg"/><text x="64" y="926" class="bgt" text-anchor="middle">3</text>
<text x="86" y="927" class="ph">其中一个头</text>
<text x="64" y="956" class="xs">第 <tspan class="mi">i</tspan> 个头，链条和 ① 同构，只是宽度换成每头一份：<tspan class="mi">d</tspan><tspan class="mi sb" baseline-shift="-20%">k</tspan> = 96、<tspan class="mi">d</tspan><tspan class="mi sb" baseline-shift="-20%">v</tspan> = 56。链条停在 <tspan class="shp">(n, 56)</tspan>，<tspan class="mi">W</tspan><tspan class="mr sb" baseline-shift="40%">O</tspan> 不在头里，它在八块拼完之后才登场。</text>

<rect x="64" y="1100" width="96" height="72" rx="4" class="soft"/>
<text x="112" y="1092" class="v" text-anchor="middle">X</text>
<text x="112" y="1188" class="shp" text-anchor="middle">(n, 512)</text>

<path d="M160 1136 C 182 1136 182 1024 204 1024 H 220" class="ink" marker-end="url(#a)"/>
<path d="M160 1136 H 220" class="ink" marker-end="url(#a)"/>
<path d="M160 1136 C 182 1136 182 1248 204 1248 H 220" class="ink" marker-end="url(#a)"/>

<rect x="220" y="1002" width="96" height="44" rx="6" class="op"/>
<text x="268" y="1022" class="v" font-size="14" text-anchor="middle">× W<tspan class="vs" baseline-shift="-20%" font-size="10">i</tspan><tspan class="vrs" baseline-shift="45%" font-size="10">Q</tspan></text>
<text x="268" y="1038" class="shp" font-size="9.5" text-anchor="middle">(512, 96)</text>

<rect x="220" y="1114" width="96" height="44" rx="6" class="op"/>
<text x="268" y="1134" class="v" font-size="14" text-anchor="middle">× W<tspan class="vs" baseline-shift="-20%" font-size="10">i</tspan><tspan class="vrs" baseline-shift="45%" font-size="10">K</tspan></text>
<text x="268" y="1150" class="shp" font-size="9.5" text-anchor="middle">(512, 96)</text>

<rect x="220" y="1226" width="96" height="44" rx="6" class="op"/>
<text x="268" y="1246" class="v" font-size="14" text-anchor="middle">× W<tspan class="vs" baseline-shift="-20%" font-size="10">i</tspan><tspan class="vrs" baseline-shift="45%" font-size="10">V</tspan></text>
<text x="268" y="1262" class="shp" font-size="9.5" text-anchor="middle">(512, 56)</text>

<path d="M316 1024 H 364" class="ink" marker-end="url(#a)"/>
<path d="M316 1136 H 364" class="ink" marker-end="url(#a)"/>
<path d="M316 1248 H 364" class="ink" marker-end="url(#a)"/>

<rect x="364" y="988" width="18" height="72" rx="2" class="acc"/>
<text x="373" y="980" class="v" text-anchor="middle">Q<tspan class="vs" baseline-shift="-20%">i</tspan></text>
<text x="373" y="1076" class="shp shpT" text-anchor="middle">(n, 96)</text>

<rect x="364" y="1100" width="18" height="72" rx="2" class="acc"/>
<text x="373" y="1092" class="v" text-anchor="middle">K<tspan class="vs" baseline-shift="-20%">i</tspan></text>
<text x="373" y="1188" class="shp shpT" text-anchor="middle">(n, 96)</text>

<rect x="364" y="1212" width="10.5" height="72" rx="2" class="acc"/>
<text x="369" y="1204" class="v" text-anchor="middle">V<tspan class="vs" baseline-shift="-20%">i</tspan></text>
<text x="369" y="1300" class="shp shpT" text-anchor="middle">(n, 56)</text>

<path d="M382 1024 C 407 1024 407 1080 432 1080" class="join"/>
<path d="M382 1136 C 407 1136 407 1080 432 1080" class="join"/>
<path d="M432 1080 H 458" class="ink" marker-end="url(#a)"/>

<rect x="458" y="1053" width="132" height="54" rx="6" class="op"/>
<text x="482" y="1078" class="v" font-size="15">Q<tspan class="vs" baseline-shift="-20%">i</tspan>K<tspan class="vs" baseline-shift="-20%">i</tspan><tspan class="vrs" baseline-shift="45%" font-size="11">T</tspan> /</text>
<path d="M530 1078 l4 6 l5 -18 h27" class="rule-ink"/>
<text x="552" y="1079" class="v" font-size="15" text-anchor="middle">d<tspan class="vs" baseline-shift="-20%">k</tspan></text>
<text x="524" y="1096" class="shp" font-size="9" text-anchor="middle">(n, 96) · (96, n)</text>

<path d="M590 1080 H 630" class="ink" marker-end="url(#a)"/>

<rect x="630" y="1044" width="72" height="72" rx="4" class="warm"/>
<text x="666" y="1036" class="v" text-anchor="middle">S<tspan class="vs" baseline-shift="-20%">i</tspan></text>
<text x="666" y="1132" class="shp shpA" text-anchor="middle">(n, n)</text>
<text x="666" y="1148" class="tiny cAmber" text-anchor="middle">每个头各一张</text>

<path d="M702 1080 H 742" class="ink" marker-end="url(#a)"/>

<rect x="742" y="1058" width="88" height="44" rx="6" class="op"/>
<text x="786" y="1078" class="vr" font-size="14" text-anchor="middle">softmax</text>
<text x="786" y="1094" class="tiny" text-anchor="middle">形状不变</text>

<path d="M830 1080 H 870" class="ink" marker-end="url(#a)"/>

<rect x="870" y="1044" width="72" height="72" rx="4" class="warm"/>
<text x="906" y="1036" class="v" text-anchor="middle">A<tspan class="vs" baseline-shift="-20%">i</tspan></text>
<text x="906" y="1132" class="shp shpA" text-anchor="middle">(n, n)</text>

<path d="M942 1080 C 957 1080 957 1136 972 1136" class="join"/>
<path d="M374.5 1248 H 906 C 946 1248 936 1136 972 1136" class="join"/>
<path d="M972 1136 H 994" class="ink" marker-end="url(#a)"/>

<rect x="994" y="1114" width="96" height="44" rx="6" class="op"/>
<text x="1042" y="1134" class="v" font-size="14" text-anchor="middle">× V<tspan class="vs" baseline-shift="-20%" font-size="10">i</tspan></text>
<text x="1042" y="1150" class="shp" font-size="9.5" text-anchor="middle">(n, 56)</text>

<path d="M1090 1136 H 1130" class="ink" marker-end="url(#a)"/>

<rect x="1130" y="1100" width="10.5" height="72" rx="2" class="acc"/>
<text x="1135" y="1092" class="v" text-anchor="middle">head<tspan class="vs" baseline-shift="-20%">i</tspan></text>
<text x="1135" y="1188" class="shp shpT" text-anchor="middle">(n, 56)</text>

<path d="M1140.5 1136 H 1216" class="tdash" marker-end="url(#at)"/>
<text x="1230" y="1124" class="xs cTeal b">送回 ② 拼接，成为八块中的一块</text>
<text x="1230" y="1144" class="tiny">头内没有 <tspan class="mi">W</tspan><tspan class="mr sb" baseline-shift="40%">O</tspan>：它是拼完之后的 <tspan class="shp" font-size="9.5">(448, 512)</tspan>，</text>
<text x="1230" y="1160" class="tiny">不属于任何单个头。</text>

<!-- ================================================================ -->
<!-- ==================== 对照表 ==================================== -->
<!-- ================================================================ -->
<rect x="40" y="1348" width="1480" height="266" rx="12" class="panel"/>
<text x="64" y="1380" class="ph">三块对照：同一条链，形状差在哪</text>

<rect x="64" y="1396" width="1432" height="26" fill="#F3F1ED"/>
<text x="420" y="1414" class="tiny b cInk">① 单头（h = 1）</text>
<text x="760" y="1414" class="tiny b cInk">② 多头整体（h = 8）</text>
<text x="1120" y="1414" class="tiny b cInk">③ 其中一个头</text>

<text x="64" y="1442" class="xs cInk">输入 <tspan class="mi">X</tspan></text>
<text x="420" y="1442" class="shp">(n, 512)</text>
<text x="760" y="1442" class="shp">(n, 512)</text>
<text x="1120" y="1442" class="shp">(n, 512)</text>
<line x1="64" y1="1452" x2="1496" y2="1452" class="thin"/>

<text x="64" y="1472" class="xs cInk">投影矩阵</text>
<text x="420" y="1472" class="xs"><tspan class="mi">W</tspan><tspan class="mr sb" baseline-shift="40%">Q</tspan>、<tspan class="mi">W</tspan><tspan class="mr sb" baseline-shift="40%">K</tspan> <tspan class="shp">(512, 384)</tspan>；<tspan class="mi">W</tspan><tspan class="mr sb" baseline-shift="40%">V</tspan> <tspan class="shp">(512, 256)</tspan></text>
<text x="760" y="1472" class="xs">每头一套：<tspan class="mi">W</tspan><tspan class="mr sb" baseline-shift="40%">Q</tspan>、<tspan class="mi">W</tspan><tspan class="mr sb" baseline-shift="40%">K</tspan> <tspan class="shp">(512, 96)</tspan>；<tspan class="mi">W</tspan><tspan class="mr sb" baseline-shift="40%">V</tspan> <tspan class="shp">(512, 56)</tspan></text>
<text x="1120" y="1472" class="xs"><tspan class="mi">W</tspan><tspan class="mi sb" baseline-shift="-20%">i</tspan><tspan class="mr sb" baseline-shift="40%">Q</tspan>、<tspan class="mi">W</tspan><tspan class="mi sb" baseline-shift="-20%">i</tspan><tspan class="mr sb" baseline-shift="40%">K</tspan> <tspan class="shp">(512, 96)</tspan>；<tspan class="mi">W</tspan><tspan class="mi sb" baseline-shift="-20%">i</tspan><tspan class="mr sb" baseline-shift="40%">V</tspan> <tspan class="shp">(512, 56)</tspan></text>
<line x1="64" y1="1482" x2="1496" y2="1482" class="thin"/>

<text x="64" y="1502" class="xs cInk"><tspan class="mi">Q</tspan>、<tspan class="mi">K</tspan>（宽 = <tspan class="mi">d</tspan><tspan class="mi sb" baseline-shift="-20%">k</tspan>）</text>
<text x="420" y="1502" class="shp shpT">(n, 384)</text>
<text x="760" y="1502" class="xs">8 组 <tspan class="shp shpT">(n, 96)</tspan></text>
<text x="1120" y="1502" class="shp shpT">(n, 96)</text>
<line x1="64" y1="1512" x2="1496" y2="1512" class="thin"/>

<text x="64" y="1532" class="xs cInk"><tspan class="mi">V</tspan>、<tspan class="mi">O</tspan>（宽 = <tspan class="mi">d</tspan><tspan class="mi sb" baseline-shift="-20%">v</tspan>）</text>
<text x="420" y="1532" class="shp shpT">(n, 256)</text>
<text x="760" y="1532" class="xs">8 组 <tspan class="shp shpT">(n, 56)</tspan></text>
<text x="1120" y="1532" class="shp shpT">(n, 56)</text>
<line x1="64" y1="1542" x2="1496" y2="1542" class="thin"/>

<text x="64" y="1562" class="xs cInk">分数 <tspan class="mi">S</tspan>、权重 <tspan class="mi">A</tspan></text>
<text x="420" y="1562" class="shp shpA">(n, n)</text>
<text x="760" y="1562" class="xs">8 张 <tspan class="shp shpA">(n, n)</tspan></text>
<text x="1120" y="1562" class="shp shpA">(n, n)</text>
<line x1="64" y1="1572" x2="1496" y2="1572" class="thin"/>

<text x="64" y="1592" class="xs cInk">这一段的输出</text>
<text x="420" y="1592" class="xs"><tspan class="mi">Y</tspan> <tspan class="shp shpT">(n, 512)</tspan>，过 <tspan class="mi">W</tspan><tspan class="mr sb" baseline-shift="40%">O</tspan> <tspan class="shp">(256, 512)</tspan></text>
<text x="760" y="1592" class="xs"><tspan class="mi">Y</tspan> <tspan class="shp shpT">(n, 512)</tspan>，过 <tspan class="mi">W</tspan><tspan class="mr sb" baseline-shift="40%">O</tspan> <tspan class="shp">(448, 512)</tspan></text>
<text x="1120" y="1592" class="xs"><tspan class="v" font-size="12">head<tspan class="vs" baseline-shift="-20%" font-size="9">i</tspan></tspan> <tspan class="shp shpT">(n, 56)</tspan>，不过 <tspan class="mi">W</tspan><tspan class="mr sb" baseline-shift="40%">O</tspan></text>

</svg>
